<svg aria-hidden="true" style="position: absolute; width: 0; height: 0; overflow: hidden;" version="1.1" xmlns="http://www.w3.org/2000/svg" xmlns:xlink="http://www.w3.org/1999/xlink">
<defs>
<symbol id="icon-telegram" viewBox="0 0 32 32">
<path d="M32 16c0 8.837-7.163 16-16 16s-16-7.163-16-16c0-8.837 7.163-16 16-16s16 7.163 16 16z"></path>
<path fill="#fff" style="fill: var(--color2, #fff)" d="M12.867 18.375l-0.318 4.169c0.454 0 0.651-0.182 0.887-0.401l2.13-1.9 4.415 3.017c0.81 0.421 1.38 0.199 1.599-0.695l2.898-12.672 0.001-0.001c0.257-1.117-0.433-1.554-1.222-1.28l-17.032 6.086c-1.162 0.421-1.145 1.026-0.198 1.3l4.355 1.264 10.115-5.907c0.476-0.294 0.909-0.131 0.553 0.163l-8.182 6.857z"></path>
</symbol>
<symbol id="elipse" viewBox="0 0 32 32">
<path d="M32 16c0 8.837-7.163 16-16 16s-16-7.163-16-16c0-8.837 7.163-16 16-16s16 7.163 16 16z"></path>
</symbol>
<symbol id="home" viewBox="0 0 35 32">
<path d="M34.253 15.613c0.257-0.279 0.414-0.654 0.414-1.064 0-0.475-0.21-0.901-0.543-1.19l-0.002-0.002-14.773-12.925c-0.318-0.269-0.732-0.432-1.184-0.432-0.467 0-0.893 0.174-1.217 0.46l0.002-0.002-14.821 13.589c-0.316 0.288-0.513 0.701-0.513 1.16 0 0.424 0.168 0.809 0.442 1.091l-0-0 0.373 0.387c0.613 0.64 1.611 0.72 2.224 0.171l1.107-0.992v14.523c0 0.893 0.72 1.613 1.613 1.613h5.773c0.891 0 1.613-0.72 1.613-1.613v-10.16h7.373v10.16c-0.013 0.891 0.624 1.613 1.515 1.613h6.123c0.891 0 1.611-0.72 1.611-1.613v-14.32l0.685 0.603c0.376 0.331 1.168 0.064 1.765-0.595l0.421-0.461z"></path>
</symbol>
<symbol id="icon-facebook" viewBox="0 0 32 32">
<path  d="M16 32c8.837 0 16-7.163 16-16s-7.163-16-16-16-16 7.163-16 16 7.163 16 16 16z"></path>
<path fill="#fff" style="fill: var(--color2, #fff)" d="M20.446 15.981h-2.611v9.619h-3.955v-9.619h-1.88v-3.379h1.88v-2.187c0-1.564 0.739-4.014 3.991-4.014l2.929 0.012v3.281h-2.125c-0.348 0-0.839 0.176-0.839 0.922v1.989h2.955l-0.345 3.377z"></path>
</symbol>
<symbol id="icon-github" viewBox="0 0 32 32">
<path d="M32 16c0 8.837-7.163 16-16 16s-16-7.163-16-16c0-8.837 7.163-16 16-16s16 7.163 16 16z"></path>
<path fill="#fff" style="fill: var(--color2, #fff)" d="M16 6.588c-5.17 0-9.412 4.242-9.412 9.412 0 4.411 3.096 8.419 7.206 9.412v-3.113c-0.408 0.088-0.781 0.091-1.196-0.031-0.556-0.164-1.008-0.535-1.344-1.099-0.214-0.36-0.593-0.753-0.988-0.724l-0.097-1.098c0.856-0.073 1.594 0.521 2.033 1.258 0.196 0.328 0.421 0.52 0.709 0.605 0.278 0.083 0.577 0.043 0.925-0.080 0.088-0.697 0.408-0.958 0.649-1.327-2.452-0.365-3.429-1.666-3.816-2.692-0.514-1.364-0.238-3.066 0.67-4.143 0.018-0.021 0.050-0.075 0.038-0.113-0.417-1.259 0.090-2.3 0.109-2.41 0.481 0.141 0.559-0.143 2.089 0.786l0.264 0.159c0.111 0.066 0.075 0.028 0.186 0.019 0.59-0.166 1.269-0.266 1.97-0.276l0.006-0c0.668 0.008 1.336 0.104 2.002 0.284l0.086 0.009c-0.008-0.002 0.024-0.006 0.075-0.037 1.911-1.158 1.842-0.779 2.355-0.946 0.019 0.111 0.519 1.169 0.106 2.411-0.056 0.171 1.656 1.739 0.708 4.256-0.388 1.026-1.365 2.328-3.816 2.693 0.314 0.48 0.692 0.734 0.69 1.722v3.886c4.109-0.993 7.206-5 7.206-9.412 0-5.17-4.242-9.412-9.412-9.412z"></path>
</symbol>
<symbol id="icon-arrow-right" viewBox="0 0 32 32">
<path d="M8 16c0-0.265 0.105-0.52 0.293-0.707s0.442-0.293 0.707-0.293h11.586l-4.294-4.292c-0.188-0.188-0.293-0.442-0.293-0.708s0.105-0.52 0.293-0.708c0.188-0.188 0.442-0.293 0.708-0.293s0.52 0.105 0.708 0.293l6 6c0.093 0.093 0.167 0.203 0.217 0.325s0.076 0.252 0.076 0.383c0 0.132-0.026 0.262-0.076 0.383s-0.124 0.232-0.217 0.325l-6 6c-0.188 0.188-0.442 0.293-0.708 0.293s-0.52-0.106-0.708-0.293c-0.188-0.188-0.293-0.442-0.293-0.708s0.105-0.52 0.293-0.708l4.294-4.292h-11.586c-0.265 0-0.52-0.105-0.707-0.293s-0.293-0.442-0.293-0.707z"></path>
</symbol>
<symbol id="icon-arrow_right" viewBox="0 0 32 32">
<path d="M19.414 27.414l10-10c0.781-0.781 0.781-2.047 0-2.828l-10-10c-0.781-0.781-2.047-0.781-2.828 0s-0.781 2.047 0 2.828l6.586 6.586h-19.172c-1.105 0-2 0.895-2 2s0.895 2 2 2h19.172l-6.586 6.586c-0.39 0.39-0.586 0.902-0.586 1.414s0.195 1.024 0.586 1.414c0.781 0.781 2.047 0.781 2.828 0z"></path>
</symbol>
<symbol id="icon-vector-red" viewBox="0 0 26 32">
<path fill="none" stroke="#d41443" style="stroke: var(--color1, #d41443)" stroke-linejoin="round" stroke-linecap="round" stroke-miterlimit="4" stroke-width="6.4" d="M5.173 3.2l14.169 12.8-14.169 12.8"></path>
</symbol>
<symbol id="icon-vector-white" viewBox="0 0 26 32">
<path fill="none" stroke="#fff" style="stroke: var(--color2, #fff)" stroke-linejoin="round" stroke-linecap="round" stroke-miterlimit="4" stroke-width="6.4" d="M5.173 3.2l14.169 12.8-14.169 12.8"></path>
</symbol>
<symbol id="icon-back-top" viewBox="0 0 16 32">
<path fill="#683d18" style="fill: var(--color1, #683d18)" d="M11.645 4.833c0.736 0.38 1.411 0.847 2.008 1.423 1.389 1.341 2.3 2.946 2.646 4.857 0.072 0.368 0.113 0.79 0.113 1.223 0 0.22-0.011 0.437-0.031 0.651l0.002-0.027c-0.034 0.342-0.087 0.682-0.141 1.021-0.044 0.276-0.114 0.326-0.391 0.315-0.133 0-0.228-0.080-0.319-0.159-0.114-0.099-0.214-0.211-0.296-0.335l-0.004-0.006c-0.055-0.088-0.118-0.164-0.188-0.233l-0-0c-0.080-0.073-0.15-0.077-0.239-0.013s-0.139 0.152-0.197 0.238c-0.133 0.196-0.267 0.392-0.461 0.536s-0.413 0.199-0.649 0.128c-0.16-0.048-0.261-0.159-0.308-0.322-0.060-0.207 0-0.412 0-0.618 0-0.123 0-0.245-0.042-0.361-0.047-0.132-0.149-0.235-0.277-0.281l-0.003-0.001c-0.077-0.029-0.166-0.047-0.258-0.050l-0.001-0c-0.163-0.008-0.298 0.1-0.369 0.284-0.067 0.174-0.099 0.356-0.131 0.539-0.054 0.299-0.108 0.599-0.295 0.853-0.321 0.435-0.92 0.388-1.167-0.092-0.048-0.089-0.095-0.197-0.135-0.308l-0.006-0.018c-0.114-0.326-0.248-0.643-0.467-0.915-0.043-0.056-0.093-0.104-0.15-0.143l-0.002-0.001c-0.133-0.085-0.224-0.079-0.34 0.029-0.061 0.061-0.115 0.131-0.159 0.206l-0.003 0.005c-0.137 0.214-0.244 0.463-0.306 0.729l-0.003 0.016c-0.065 0.287-0.157 0.564-0.318 0.813-0.117 0.181-0.262 0.33-0.478 0.393-0.331 0.096-0.612-0.055-0.712-0.384-0.072-0.237-0.049-0.476-0.009-0.715 0.050-0.307 0.084-0.616 0.075-0.928-0.003-0.216-0.038-0.423-0.1-0.618l0.004 0.015c-0.067-0.207-0.179-0.378-0.412-0.398-0.238-0.022-0.457 0.047-0.613 0.243-0.163 0.205-0.218 0.451-0.241 0.705-0.022 0.248-0.060 0.492-0.144 0.728-0.024 0.074-0.053 0.138-0.088 0.197l0.003-0.005c-0.215 0.34-0.41 0.331-0.65 0.156-0.311-0.229-0.532-0.532-0.687-0.885-0.080-0.183-0.147-0.372-0.296-0.516-0.171-0.165-0.36-0.17-0.527 0-0.178 0.178-0.257 0.403-0.275 0.651-0.007 0.133-0.033 0.258-0.077 0.374l0.003-0.008c-0.080 0.204-0.252 0.32-0.47 0.328-0.336 0.013-0.571-0.129-0.719-0.434-0.103-0.211-0.158-0.439-0.246-0.655-0.040-0.106-0.087-0.197-0.144-0.281l0.003 0.005c-0.119-0.168-0.268-0.186-0.425-0.051-0.258 0.222-0.387 0.518-0.456 0.845-0.044 0.21-0.081 0.423-0.173 0.619-0.043 0.091-0.078 0.195-0.192 0.229-0.317 0.15-0.628-0.042-0.685-0.424-0.005-0.035 0.004-0.074-0.024-0.105v-0.334c0.020-0.172 0.019-0.345 0.038-0.517 0.039-0.351-0.010-0.702-0.003-1.053 0.018-1.212 0.306-2.352 0.807-3.369l-0.021 0.046c0.422-0.861 0.968-1.594 1.625-2.211l0.004-0.004c0.52-0.489 1.105-0.918 1.738-1.271l0.045-0.023c0.282-0.156 0.568-0.301 0.863-0.432 0.040-0.018 0.079-0.043 0.126-0.031 0.053 0.028 0.047 0.081 0.046 0.127-0.006 0.473 0.221 0.827 0.578 1.109 0.313 0.247 0.674 0.399 1.052 0.51 0.479 0.149 1.030 0.234 1.601 0.234 0.006 0 0.013 0 0.019-0h-0.001c0.655-0.005 1.297-0.109 1.907-0.358 0.34-0.139 0.66-0.316 0.896-0.614 0.163-0.204 0.268-0.461 0.284-0.742l0-0.004c0.003-0.047-0.007-0.098 0.041-0.131z"></path>
<path fill="#d55993" style="fill: var(--color2, #d55993)" d="M7.083 2.224c-0.188-0.144-0.369-0.295-0.497-0.5-0.254-0.41-0.139-0.926 0.247-1.101 0.339-0.154 0.79-0.051 1.032 0.236 0.020 0.024 0.040 0.048 0.074 0.089 0.012-0.146 0-0.271 0.031-0.393 0.068-0.278 0.231-0.458 0.509-0.529 0.024-0.006 0.054 0.002 0.070-0.025h0.311c0.089 0.035 0.185 0.044 0.267 0.097 0.254 0.161 0.329 0.413 0.351 0.692 0.003 0.040 0.004 0.081 0.005 0.122 0.036 0.144 0.003 0.285-0.030 0.423-0.089 0.369-0.223 0.694-0.4 0.991l0.009-0.016c-0.043 0.074-0.098 0.106-0.181 0.097-0.271-0.029-0.494 0.062-0.665 0.276-0.048 0.060-0.099 0.081-0.173 0.054-0.342-0.122-0.637-0.27-0.91-0.449l0.016 0.010c-0.029-0.016-0.053-0.040-0.067-0.069l-0-0.001z"></path>
<path fill="#ef97bf" style="fill: var(--color3, #ef97bf)" d="M0.707 14.426c0.206-0.205 0.26-0.475 0.311-0.743 0.058-0.294 0.148-0.572 0.334-0.811 0.059-0.082 0.13-0.151 0.211-0.205l0.003-0.002c0.143-0.088 0.276-0.067 0.382 0.067 0.128 0.159 0.185 0.351 0.249 0.54 0.067 0.192 0.123 0.387 0.236 0.559 0.17 0.259 0.456 0.334 0.751 0.274 0.197-0.040 0.29-0.187 0.343-0.368 0.043-0.147 0.034-0.301 0.065-0.449 0.040-0.192 0.12-0.365 0.259-0.505 0.177-0.179 0.402-0.179 0.578-0.001 0.133 0.135 0.206 0.306 0.276 0.477 0.139 0.337 0.344 0.622 0.6 0.851l0.002 0.002c0.323 0.287 0.565 0.236 0.744-0.154 0.119-0.259 0.156-0.537 0.184-0.817 0.027-0.267 0.078-0.529 0.258-0.743 0.162-0.194 0.381-0.263 0.624-0.247 0.205 0.013 0.334 0.146 0.409 0.328 0.141 0.345 0.138 0.706 0.122 1.070-0.015 0.334-0.108 0.658-0.1 0.993 0.002 0.087 0.013 0.17 0.032 0.25l-0.002-0.008c0.117 0.521 0.687 0.509 0.961 0.245 0.221-0.212 0.342-0.479 0.427-0.765 0.092-0.307 0.156-0.624 0.319-0.905 0.065-0.117 0.136-0.218 0.217-0.311l-0.002 0.002c0.139-0.151 0.253-0.162 0.417-0.040 0.14 0.104 0.232 0.248 0.317 0.395 0.116 0.202 0.221 0.436 0.301 0.682l0.008 0.027c0.043 0.13 0.096 0.243 0.162 0.347l-0.004-0.007c0.229 0.364 0.683 0.418 0.998 0.12 0.204-0.194 0.272-0.451 0.331-0.712 0.053-0.234 0.078-0.474 0.154-0.703 0.093-0.279 0.237-0.393 0.465-0.368 0.345 0.039 0.526 0.2 0.561 0.493 0.020 0.171 0.005 0.34-0.010 0.509-0.020 0.229-0.018 0.451 0.205 0.591 0.183 0.115 0.509 0.075 0.712-0.075 0.173-0.128 0.298-0.296 0.416-0.472 0.068-0.102 0.133-0.206 0.222-0.289 0.121-0.111 0.21-0.109 0.325 0.007 0.087 0.087 0.152 0.191 0.222 0.291 0.14 0.202 0.314 0.362 0.547 0.449-0.022 0.454-0.208 0.848-0.449 1.222s-0.525 0.722-0.778 1.090c-0.226 0.326-0.421 0.667-0.51 1.060-0.047 0.206-0.036 0.411-0.005 0.615 0.009 0.052 0.014 0.112 0.014 0.173 0 0.032-0.001 0.064-0.004 0.096l0-0.004c-0.017 0.196-0.142 0.289-0.365 0.311-0.031 0.004-0.066 0.006-0.102 0.006-0.209 0-0.4-0.072-0.552-0.192l0.002 0.001c-0.054-0.004-0.079-0.050-0.115-0.081-0.085-0.073-0.135-0.064-0.172 0.042-0.063 0.181-0.122 0.364-0.204 0.538-0.214 0.451-0.479 0.865-0.875 1.181-0.037 0.030-0.072 0.064-0.123 0.071-0.031 0.007-0.056 0.026-0.073 0.051l-0 0c-0.016 0.029-0.040 0.053-0.069 0.069l-0.001 0c-0.301 0.18-0.662 0.289-1.049 0.296l-0.002 0c-0.040 0-0.082 0.004-0.114-0.028l-0.131-0.003c-0.193 0.025-0.372-0.040-0.549-0.099-0.386-0.128-0.725-0.34-1.032-0.605-0.036-0.031-0.074-0.062-0.086-0.111-0.015-0.027-0.039-0.046-0.067-0.056l-0.001-0c-0.162-0.125-0.294-0.279-0.419-0.438-0.199-0.248-0.385-0.526-0.546-0.82l-0.015-0.030c-0.069-0.129-0.133-0.13-0.215-0.007-0.024 0.036-0.035 0.083-0.083 0.099l-0.058 0.089c0 0.048-0.029 0.082-0.055 0.118-0.278 0.382-0.631 0.692-1.038 0.915l-0.016 0.008c-0.067 0.036-0.133 0.077-0.216 0.073l-0.191 0.069c-0.030 0.022-0.059 0.047-0.095 0.056-0.424 0.11-0.849 0.166-1.276 0.014-0.058-0.022-0.108-0.053-0.149-0.093l0 0c-0.481-0.301-0.658-0.777-0.737-1.303-0.047-0.307-0.064-0.616-0.027-0.928 0.008-0.067 0.039-0.17-0.062-0.187-0.105-0.018-0.097 0.092-0.116 0.156-0.081 0.267-0.18 0.526-0.399 0.715-0.186 0.16-0.4 0.173-0.624 0.102s-0.364-0.228-0.416-0.46c-0.040-0.178-0.018-0.351 0.032-0.524 0.189-0.657 0.032-1.252-0.35-1.793-0.254-0.357-0.464-0.769-0.612-1.21l-0.010-0.033c-0.012-0.035-0.026-0.069-0.040-0.103z"></path>
<path fill="#f9c4db" style="fill: var(--color4, #f9c4db)" d="M5.311 4.362c0.087-0.297 0.294-0.508 0.516-0.704 0.14-0.123 0.286-0.242 0.456-0.324 0.037 0.067 0.013 0.139 0.007 0.206-0.024 0.306 0.121 0.525 0.346 0.705 0.185 0.148 0.398 0.241 0.621 0.312 0.366 0.123 0.788 0.195 1.226 0.195 0.057 0 0.113-0.001 0.169-0.004l-0.008 0c0.437-0.020 0.869-0.084 1.275-0.261 0.414-0.18 0.7-0.464 0.731-0.945 0.002-0.033 0.001-0.067 0.028-0.093 0.437 0.232 0.776 0.548 0.912 1.044-0.026 0.105-0.092 0.183-0.163 0.26-0.378 0.412-0.856 0.665-1.374 0.849-0.477 0.17-0.971 0.245-1.476 0.281-0.099 0.008-0.214 0.013-0.33 0.013-0.39 0-0.769-0.052-1.128-0.149l0.030 0.007c-0.472-0.125-0.89-0.356-1.263-0.672-0.191-0.163-0.347-0.353-0.496-0.551-0.039-0.046-0.067-0.104-0.078-0.167l-0-0.002z"></path>
<path fill="#f9c4db" style="fill: var(--color4, #f9c4db)" d="M7.083 2.224c0.276 0.182 0.592 0.344 0.926 0.47l0.033 0.011c0.067 0.024 0.104 0.024 0.154-0.042 0.169-0.222 0.398-0.321 0.678-0.286 0.080 0.010 0.125-0.012 0.167-0.087 0.188-0.338 0.334-0.692 0.406-1.073 0.019-0.101 0.024-0.205 0.036-0.308 0.059-0.022 0.116-0.048 0.175-0.067 0.145-0.048 0.247 0 0.289 0.151 0.055 0.2 0.061 0.406 0.071 0.613 0.010 0.222 0.002 0.451 0.097 0.663 0.141 0.309 0.299 0.575 0.482 0.822l-0.008-0.012c0.007 0.011 0.014 0.024 0.019 0.037l0.001 0.002c-0.018 0.042-0.046 0.077-0.081 0.103l-0.001 0c-0.523 0.407-1.17 0.677-1.877 0.747l-0.015 0.001c-0.085 0.009-0.184 0.014-0.285 0.014-0.277 0-0.546-0.039-0.799-0.112l0.020 0.005c-0.456-0.124-0.831-0.378-1.134-0.739-0.015-0.019-0.028-0.041-0.039-0.065l-0.001-0.002c0.135-0.263 0.319-0.489 0.526-0.698 0.051-0.051 0.125-0.079 0.16-0.148z"></path>
<path fill="#ef97bf" style="fill: var(--color3, #ef97bf)" d="M5.311 4.362c0.323 0.515 0.78 0.921 1.322 1.173l0.019 0.008c0.296 0.139 0.639 0.24 0.999 0.283l0.016 0.002c0.22 0.028 0.439 0.050 0.661 0.042 0.83-0.029 1.632-0.175 2.368-0.585 0.356-0.198 0.667-0.447 0.894-0.791q0.029 0.17 0.057 0.34c-0.015 0.213-0.034 0.426-0.131 0.623-0.201 0.411-0.548 0.658-0.95 0.838-0.569 0.256-1.17 0.374-1.79 0.405-0.807 0.040-1.588-0.082-2.336-0.388-0.331-0.135-0.633-0.319-0.867-0.596-0.221-0.26-0.342-0.558-0.334-0.903 0-0.036 0.009-0.074-0.011-0.109q0.041-0.171 0.084-0.343z"></path>
<path fill="#ef97bf" style="fill: var(--color3, #ef97bf)" d="M6.397 3.070c0.12 0.079 0.197 0.203 0.304 0.297 0.344 0.306 0.745 0.473 1.196 0.549 0.592 0.1 1.156-0.002 1.709-0.206 0.386-0.147 0.718-0.348 1.008-0.597l-0.004 0.004q0.035 0.166 0.069 0.334c0.008 0.425-0.174 0.743-0.541 0.958-0.327 0.192-0.686 0.276-1.057 0.329-0.249 0.035-0.499 0.058-0.749 0.041-0.57-0.037-1.127-0.131-1.622-0.443-0.2-0.126-0.363-0.293-0.427-0.531-0.042-0.156-0.030-0.314 0-0.471 0.038-0.089 0.061-0.183 0.114-0.264z"></path>
<path fill="#e1b17f" style="fill: var(--color5, #e1b17f)" d="M11.049 22.712c-0.017 0.018-0.031 0.035-0.046 0.051q-0.596 0.598-1.191 1.198c-0.044 0.044-0.069 0.043-0.111 0q-0.59-0.596-1.185-1.187c-0.046-0.044-0.041-0.070 0.002-0.113q0.584-0.594 1.163-1.193c0.044-0.047 0.069-0.041 0.111 0.002q0.6 0.594 1.203 1.184c0.018 0.017 0.034 0.036 0.055 0.058z"></path>
<path fill="#e1b17f" style="fill: var(--color5, #e1b17f)" d="M7.072 24.151c0.018 0.015 0.035 0.028 0.050 0.043q0.581 0.596 1.162 1.191c0.044 0.044 0.040 0.073-0.003 0.116q-0.583 0.585-1.162 1.176c-0.044 0.046-0.072 0.054-0.123 0.003q-0.572-0.573-1.151-1.14c-0.042-0.041-0.065-0.072-0.012-0.126q0.599-0.609 1.194-1.222c0.014-0.014 0.028-0.026 0.045-0.042z"></path>
<path fill="#e1b17f" style="fill: var(--color5, #e1b17f)" d="M9.567 29.403c0 0.030-0.022 0.044-0.040 0.064-0.399 0.432-0.798 0.862-1.195 1.296-0.052 0.056-0.080 0.047-0.128-0.003q-0.54-0.572-1.086-1.14c-0.046-0.048-0.055-0.081 0-0.135q0.612-0.604 1.216-1.216c0.043-0.044 0.069-0.048 0.115-0.002 0.356 0.36 0.716 0.717 1.074 1.075 0.018 0.018 0.041 0.033 0.043 0.062z"></path>
<path fill="#e1b17f" style="fill: var(--color5, #e1b17f)" d="M9.683 24.084c-0.017 0.020-0.030 0.038-0.044 0.053q-0.592 0.594-1.182 1.189c-0.036 0.036-0.057 0.043-0.097 0.002q-0.583-0.602-1.17-1.201c-0.054-0.055-0.018-0.080 0.016-0.115 0.341-0.35 0.681-0.7 1.024-1.048 0.054-0.055 0.094-0.156 0.162-0.156 0.074 0 0.121 0.097 0.178 0.154q0.524 0.521 1.045 1.045c0.022 0.024 0.043 0.049 0.068 0.077z"></path>
<path fill="#e1b17f" style="fill: var(--color5, #e1b17f)" d="M10.897 25.356c-0.053 0.117-0.058 0.269-0.174 0.382-0.313 0.304-0.62 0.616-0.925 0.928-0.058 0.060-0.089 0.060-0.147 0q-0.556-0.582-1.118-1.156c-0.053-0.054-0.048-0.082 0.002-0.133q0.582-0.579 1.16-1.164c0.044-0.046 0.070-0.055 0.121-0.003 0.342 0.348 0.689 0.693 1.034 1.039 0.026 0.026 0.060 0.048 0.047 0.109z"></path>
<path fill="#e1b17f" style="fill: var(--color5, #e1b17f)" d="M7.037 21.459c0.038-0.001 0.053 0.022 0.070 0.040 0.39 0.39 0.778 0.782 1.171 1.17 0.046 0.046 0.030 0.069-0.006 0.106q-0.463 0.472-0.923 0.946c-0.067 0.069-0.135 0.137-0.197 0.211-0.053 0.064-0.089 0.064-0.147 0.002-0.33-0.345-0.664-0.686-0.997-1.029-0.026-0.027-0.051-0.053-0.078-0.080-0.137-0.137-0.137-0.137-0.003-0.27l1.041-1.033c0.023-0.023 0.048-0.045 0.069-0.063z"></path>
<path fill="#e1b17f" style="fill: var(--color5, #e1b17f)" d="M8.392 28.066c-0.024-0.022-0.044-0.037-0.062-0.055-0.383-0.382-0.763-0.765-1.149-1.144-0.060-0.059-0.033-0.085 0.010-0.129q0.583-0.587 1.162-1.177c0.044-0.044 0.070-0.034 0.107 0.004q0.566 0.587 1.134 1.172c0.049 0.050 0.055 0.077 0.001 0.13-0.381 0.378-0.758 0.759-1.137 1.14-0.020 0.020-0.043 0.038-0.067 0.059z"></path>
<path fill="#e1b17f" style="fill: var(--color5, #e1b17f)" d="M9.659 21.348c-0.018 0.020-0.031 0.037-0.046 0.053-0.385 0.394-0.771 0.788-1.154 1.184-0.051 0.053-0.081 0.051-0.132 0q-0.57-0.576-1.148-1.146c-0.051-0.050-0.044-0.076 0.002-0.122q0.586-0.576 1.166-1.156c0.042-0.043 0.067-0.049 0.111-0.002 0.378 0.376 0.758 0.749 1.138 1.122 0.022 0.019 0.040 0.042 0.063 0.067z"></path>
<path fill="#e1b17f" style="fill: var(--color5, #e1b17f)" d="M6.975 21.373c-0.020 0.022-0.035 0.043-0.053 0.061q-0.556 0.552-1.111 1.103c-0.057 0.056-0.097 0.076-0.166 0.003q-0.534-0.565-1.078-1.118c-0.063-0.064-0.080-0.097-0.006-0.173 0.35-0.361 0.693-0.729 1.035-1.097 0.056-0.060 0.087-0.072 0.152-0.006 0.383 0.387 0.771 0.767 1.156 1.151 0.024 0.023 0.045 0.048 0.070 0.076z"></path>
<path fill="#e1b17f" style="fill: var(--color5, #e1b17f)" d="M5.78 19.947c0.552-0.241 0.982-0.625 1.326-1.114q0.348 0.342 0.696 0.683c0.158 0.156 0.316 0.311 0.477 0.464 0.044 0.042 0.049 0.069 0.002 0.115q-0.594 0.581-1.184 1.168c-0.040 0.040-0.062 0.031-0.097-0.004q-0.602-0.606-1.207-1.209c-0.034-0.034-0.048-0.063-0.012-0.102z"></path>
<path fill="#e1b17f" style="fill: var(--color5, #e1b17f)" d="M10.308 20.814c0.445 0.010 0.854-0.11 1.235-0.337 0.217 0.227 0.433 0.455 0.653 0.679 0.042 0.043 0.046 0.077 0.036 0.135-0.046 0.275-0.222 0.466-0.409 0.651q-0.319 0.316-0.634 0.636c-0.044 0.046-0.073 0.067-0.131 0.008q-0.596-0.596-1.201-1.183c-0.047-0.046-0.042-0.071 0-0.115 0.152-0.156 0.302-0.315 0.451-0.473z"></path>
<path fill="#e1b17f" style="fill: var(--color5, #e1b17f)" d="M5.756 25.368c-0.095-0.3-0.183-0.574-0.269-0.848-0.113-0.359-0.222-0.719-0.338-1.077-0.022-0.069-0.015-0.115 0.039-0.166q0.243-0.227 0.478-0.463c0.049-0.049 0.077-0.047 0.124 0.002q0.563 0.583 1.13 1.16c0.070 0.071 0.078 0.116 0 0.193-0.346 0.345-0.684 0.697-1.024 1.047-0.043 0.044-0.084 0.091-0.139 0.151z"></path>
<path fill="#e1b17f" style="fill: var(--color5, #e1b17f)" d="M7.028 29.431c-0.196-0.623-0.389-1.237-0.584-1.851-0.005-0.012-0.008-0.026-0.008-0.041 0-0.035 0.016-0.066 0.041-0.086l0-0q0.262-0.256 0.517-0.518c0.044-0.044 0.068-0.044 0.113 0q0.576 0.576 1.156 1.149c0.031 0.030 0.070 0.052 0.018 0.104-0.415 0.41-0.829 0.823-1.253 1.243z"></path>
<path fill="#e1b17f" style="fill: var(--color5, #e1b17f)" d="M9.59 29.303c-0.106-0.117-0.204-0.232-0.309-0.339q-0.378-0.384-0.761-0.761c-0.048-0.048-0.050-0.074-0.001-0.122q0.575-0.571 1.145-1.147c0.047-0.048 0.075-0.053 0.123-0.001 0.13 0.141 0.264 0.279 0.399 0.416 0.021 0.017 0.034 0.044 0.034 0.073 0 0.013-0.002 0.025-0.007 0.036l0-0.001q-0.292 0.894-0.582 1.789c-0.013 0.021-0.026 0.040-0.041 0.057l0-0.001z"></path>
<path fill="#e1b17f" style="fill: var(--color5, #e1b17f)" d="M10.947 25.207l-0.594-0.596c-0.156-0.157-0.311-0.316-0.471-0.47-0.044-0.044-0.044-0.071 0-0.115q0.593-0.591 1.182-1.187c0.043-0.044 0.070-0.049 0.115-0.002 0.118 0.123 0.241 0.24 0.361 0.36 0.026 0.025 0.052 0.046 0.036 0.094-0.208 0.63-0.414 1.261-0.629 1.917z"></path>
<path fill="#e1b27f" style="fill: var(--color6, #e1b27f)" d="M11.616 20.426c0.286-0.222 0.527-0.487 0.715-0.788l0.007-0.013c0.175-0.278 0.324-0.598 0.431-0.937l0.008-0.030c0.058-0.185 0.118-0.198 0.257-0.058 0.023 0.024 0.044 0.049 0.067 0.073l-0.646 1.93c-0.054 0.161-0.107 0.322-0.164 0.495z"></path>
<path fill="#e1b27f" style="fill: var(--color6, #e1b27f)" d="M4.069 19.993c0.503 0.233 1.011 0.162 1.52 0.022l-1.134 1.207c-0.133-0.424-0.26-0.826-0.386-1.229z"></path>
<path fill="#e1b27f" style="fill: var(--color6, #e1b27f)" d="M8.16 32c-0.13-0.003-0.307-0.122-0.425-0.336-0.022-0.041-0.033-0.075 0.007-0.118 0.16-0.169 0.318-0.34 0.472-0.514 0.048-0.054 0.073-0.046 0.118 0.002q0.236 0.257 0.481 0.505c0.044 0.046 0.048 0.083 0.017 0.133-0.125 0.21-0.301 0.331-0.67 0.327z"></path>
<path fill="#e1b27f" style="fill: var(--color6, #e1b27f)" d="M9.492 29.667l-0.591 1.817c-0.143-0.12-0.25-0.26-0.373-0.385-0.195-0.197-0.193-0.196-0.005-0.4 0.309-0.334 0.616-0.67 0.924-1.005 0.013-0.009 0.028-0.018 0.043-0.026l0.002-0.001z"></path>
<path fill="#e1b27f" style="fill: var(--color6, #e1b27f)" d="M6.39 27.396c-0.178-0.564-0.351-1.119-0.534-1.705 0.089 0.086 0.157 0.149 0.222 0.215 0.28 0.28 0.558 0.561 0.84 0.839 0.050 0.049 0.059 0.079 0.003 0.131-0.177 0.167-0.347 0.339-0.532 0.52z"></path>
<path fill="#e1b27f" style="fill: var(--color6, #e1b27f)" d="M4.578 21.616c0.098 0.088 0.214 0.183 0.32 0.289 0.233 0.233 0.46 0.471 0.689 0.708 0.033 0.034 0.077 0.060 0.021 0.116-0.168 0.167-0.332 0.338-0.516 0.527q-0.27-0.859-0.514-1.64z"></path>
<path fill="#e1b27f" style="fill: var(--color6, #e1b27f)" d="M7.165 29.806q0.37 0.39 0.739 0.778c0.087 0.091 0.171 0.184 0.258 0.275 0.027 0.028 0.038 0.049 0.006 0.083-0.164 0.175-0.325 0.352-0.498 0.538-0.176-0.562-0.348-1.112-0.521-1.661z"></path>
<path fill="#e1b27f" style="fill: var(--color6, #e1b27f)" d="M10.727 25.881c-0.151 0.462-0.297 0.902-0.439 1.344-0.021 0.065-0.042 0.055-0.079 0.015-0.122-0.129-0.245-0.256-0.368-0.384-0.026-0.027-0.054-0.047-0.012-0.089 0.295-0.289 0.588-0.581 0.898-0.887z"></path>
<path fill="#e1b27f" style="fill: var(--color6, #e1b27f)" d="M8.51 19.996c0.266 0.236 0.548 0.448 0.876 0.593 0.236 0.105 0.48 0.186 0.741 0.204 0.019 0.004 0.036 0.011 0.052 0.019l-0.001-0.001c-0.129 0.137-0.261 0.272-0.388 0.411-0.043 0.047-0.069 0.044-0.113 0q-0.571-0.566-1.147-1.128c-0.030-0.029-0.064-0.056-0.020-0.099z"></path>
<path fill="#e1b27f" style="fill: var(--color6, #e1b27f)" d="M12.031 21.897c-0.133 0.408-0.267 0.816-0.416 1.268-0.145-0.156-0.269-0.289-0.396-0.423-0.026-0.028-0.014-0.043 0.006-0.063q0.396-0.395 0.792-0.79z"></path>
<path fill="#e1b280" style="fill: var(--color7, #e1b280)" d="M7.164 18.744c0.026-0.048 0.050-0.099 0.079-0.145 0.068-0.111 0.164-0.108 0.227 0.010 0.159 0.296 0.322 0.548 0.504 0.786l-0.010-0.014c0.128 0.169 0.257 0.319 0.397 0.46l-0-0c0.031 0.031 0.069 0.056 0.083 0.101-0.034 0.035-0.056 0.011-0.081-0.014q-0.598-0.592-1.197-1.183z"></path>
<path fill="#fffefe" style="fill: var(--color8, #fffefe)" d="M10.153 9.448c0.001-0 0.003-0 0.005-0 0.153 0 0.277 0.124 0.277 0.277 0 0 0 0.001 0 0.001v-0c-0.004 0.155-0.13 0.279-0.285 0.28h-0c-0.151-0.003-0.272-0.125-0.272-0.276 0-0 0-0.001 0-0.001v0c-0.001-0.164 0.113-0.28 0.275-0.28z"></path>
<path fill="#fffefe" style="fill: var(--color8, #fffefe)" d="M12.778 8.425c0 0 0 0 0 0 0.153 0 0.277 0.124 0.277 0.277 0 0.002-0 0.004-0 0.006v-0c-0.006 0.151-0.128 0.271-0.278 0.275h-0c-0 0-0.001 0-0.001 0-0.153 0-0.277-0.124-0.277-0.277 0-0.002 0-0.003 0-0.005v0c0-0.163 0.116-0.277 0.28-0.276z"></path>
<path fill="#fffefe" style="fill: var(--color8, #fffefe)" d="M4.199 8.498c0 0.002 0 0.005 0 0.008 0 0.152-0.123 0.276-0.276 0.277h-0c-0.155-0.003-0.28-0.128-0.282-0.283v-0c0.001-0.151 0.124-0.273 0.275-0.274h0c0.164-0.002 0.281 0.111 0.282 0.273z"></path>
<path fill="#fefefe" style="fill: var(--color9, #fefefe)" d="M3.646 6.804c-0.153-0.001-0.276-0.125-0.276-0.278s0.124-0.278 0.278-0.278c0.001 0 0.001 0 0.002 0h-0c0.153 0.001 0.276 0.125 0.276 0.278s-0.124 0.278-0.278 0.278c-0.001 0-0.001 0-0.002 0h0z"></path>
<path fill="#fefefe" style="fill: var(--color9, #fefefe)" d="M1.967 9.057c-0.151-0.002-0.273-0.124-0.275-0.274v-0c0-0 0-0 0-0 0-0.157 0.127-0.284 0.284-0.284 0.002 0 0.005 0 0.007 0h-0c0.149 0.006 0.267 0.128 0.267 0.278 0 0.002-0 0.004-0 0.006v-0c0 0.001 0 0.003 0 0.004 0 0.15-0.122 0.272-0.272 0.272-0.004 0-0.008-0-0.012-0l0.001 0z"></path>
<path fill="#fffefe" style="fill: var(--color8, #fffefe)" d="M12.851 7.078c-0.003 0-0.007 0-0.011 0-0.152 0-0.274-0.123-0.274-0.274s0.122-0.274 0.273-0.274h0c0.167-0.002 0.283 0.106 0.285 0.268s-0.109 0.279-0.273 0.28z"></path>
<path fill="#fffefe" style="fill: var(--color8, #fffefe)" d="M11.020 8.057c-0.15-0.002-0.27-0.124-0.27-0.274 0-0.152 0.123-0.274 0.274-0.274 0.002 0 0.003 0 0.005 0h-0c0.165 0 0.276 0.114 0.275 0.279s-0.117 0.272-0.284 0.27z"></path>
<path fill="#fffefe" style="fill: var(--color8, #fffefe)" d="M5.321 9.331c-0-0.002-0-0.004-0-0.007 0-0.152 0.123-0.275 0.275-0.275s0.275 0.123 0.275 0.275c0 0.003-0 0.006-0 0.009v-0c0 0.163-0.115 0.281-0.276 0.28s-0.275-0.117-0.273-0.282z"></path>
<path fill="#fffefe" style="fill: var(--color8, #fffefe)" d="M8.114 9.169c-0.166 0-0.279-0.111-0.279-0.275s0.113-0.274 0.28-0.274c0.152 0 0.274 0.123 0.274 0.274s-0.123 0.274-0.274 0.274v0z"></path>
<path fill="#fffefe" style="fill: var(--color8, #fffefe)" d="M14.114 8.227c-0.001-0.162 0.115-0.283 0.273-0.284 0.001-0 0.003-0 0.004-0 0.15 0 0.272 0.122 0.272 0.272 0 0.004-0 0.007-0 0.011v-0.001c0 0.159-0.111 0.274-0.268 0.277-0.162 0.004-0.279-0.112-0.281-0.275z"></path>
<path fill="#fffefe" style="fill: var(--color8, #fffefe)" d="M6.476 7.947c0-0.166 0.111-0.279 0.275-0.278s0.275 0.116 0.274 0.281c-0.001 0.151-0.123 0.274-0.275 0.274s-0.275-0.123-0.275-0.275c0-0 0-0.001 0-0.001v0z"></path>
</symbol>
<symbol id="icon-Burger" viewBox="0 0 32 32">
<path fill="none" stroke="#d41443" style="stroke: var(--color3, #d41443)" stroke-linejoin="miter" stroke-linecap="butt" stroke-miterlimit="4" stroke-width="1.6" d="M0 6.4h32M0 16h32M0 25.6h32"></path>
</symbol>
<symbol id="icon-bracket" viewBox="0 0 32 32">
<path d="M6.139 28.005l12.267-12.005-12.267-12.267 3.733-3.733 16 16-16 16z"></path>
</symbol>
<symbol id="icon-close" viewBox="0 0 32 32">
<path d="M32 3.223l-3.223-3.223-12.777 12.777-12.777-12.777-3.223 3.223 12.777 12.777-12.777 12.777 3.223 3.223 12.777-12.777 12.777 12.777 3.223-3.223-12.777-12.777 12.777-12.777z"></path>
</symbol>
<symbol id="icon-name" viewBox="0 0 32 32">
<path d="M16.015 16.015c4.422 0 8.008-3.585 8.008-8.008s-3.585-8.008-8.008-8.008v0c-4.422 0-8.008 3.585-8.008 8.008s3.585 8.008 8.008 8.008v0zM16.015 20.019c-5.344 0-16.015 2.683-16.015 8.008v2.002c0 1.1 0.902 2.002 2.002 2.002h28.027c1.1 0 2.002-0.902 2.002-2.002v-2.002c0-5.325-10.671-8.008-16.015-8.008z"></path>
</symbol>
<symbol id="icon-tel" viewBox="0 0 32 32">
<path d="M27.436 20.865l-4.204-0.48c-0.116-0.014-0.25-0.023-0.386-0.023-0.91 0-1.733 0.369-2.329 0.965l-3.046 3.046c-4.72-2.436-8.472-6.188-10.842-10.771l-0.065-0.139 3.065-3.058c0.596-0.596 0.965-1.419 0.965-2.329 0-0.136-0.008-0.27-0.024-0.402l0.002 0.016-0.48-4.172c-0.199-1.656-1.596-2.928-3.289-2.928-0.001 0-0.003 0-0.004 0h-2.863c-1.871-0.002-3.426 1.553-3.312 3.424 0.878 14.134 12.183 25.421 26.302 26.299 1.869 0.114 3.426-1.441 3.426-3.312v-2.863c0-0.005 0-0.010 0-0.016 0-1.682-1.267-3.069-2.899-3.258l-0.015-0.001z"></path>
</symbol>
<symbol id="icon-mail" viewBox="0 0 43 32">
<path d="M37.347 0.009h-32.011c-2.201 0-3.983 1.801-3.983 4.001l-0.019 24.009c0 2.201 1.801 4.001 4.001 4.001h32.011c2.201 0 4.001-1.801 4.001-4.001v-24.009c0-2.201-1.801-4.001-4.001-4.001zM36.546 8.514l-14.144 8.84c-0.302 0.188-0.668 0.3-1.060 0.3s-0.759-0.112-1.069-0.305l0.009 0.005-14.146-8.843c-0.504-0.301-0.836-0.843-0.836-1.463 0-0.938 0.761-1.699 1.699-1.699 0.349 0 0.673 0.105 0.943 0.286l-0.006-0.004 13.405 8.384 13.405-8.384c0.264-0.176 0.588-0.282 0.937-0.282 0.938 0 1.699 0.761 1.699 1.699 0 0.62-0.332 1.162-0.828 1.459l-0.008 0.004z"></path>
</symbol>
</defs>
</svg>
